<?xml version="1.0" standalone="no"?>
<!DOCTYPE svg PUBLIC "-//W3C//DTD SVG 20010904//EN"
 "http://www.w3.org/TR/2001/REC-SVG-20010904/DTD/svg10.dtd">
<svg version="1.0" xmlns="http://www.w3.org/2000/svg"
 width="512.000000pt" height="512.000000pt" viewBox="0 0 512.000000 512.000000"
 preserveAspectRatio="xMidYMid meet">
<metadata>
Created by potrace 1.14, written by Peter Selinger 2001-2017
</metadata>
<g transform="translate(0.000000,512.000000) scale(0.100000,-0.100000)"
fill="#000000" stroke="none">
<path d="M3522 4610 c-101 -27 -197 -76 -236 -122 -23 -27 -41 -38 -60 -38
-51 0 -174 -79 -160 -102 3 -5 -5 -6 -19 -3 -48 12 -167 -75 -153 -111 4 -10
-2 -12 -24 -7 -33 6 -97 -27 -159 -82 -20 -18 -51 -40 -69 -49 -26 -14 -32
-21 -26 -38 4 -13 2 -18 -5 -14 -24 15 -106 -49 -106 -82 0 -12 -10 -18 -32
-20 -42 -4 -130 -82 -135 -119 -2 -15 -9 -28 -16 -31 -7 -2 -10 2 -6 12 4 10
1 16 -9 16 -19 0 -105 -95 -113 -124 -3 -12 -18 -27 -35 -35 -38 -17 -206
-186 -239 -241 -14 -23 -40 -60 -58 -82 -20 -25 -32 -49 -29 -60 4 -13 -1 -18
-18 -18 -16 0 -26 -9 -35 -29 -6 -16 -23 -44 -36 -62 -13 -18 -24 -45 -24 -59
0 -15 -10 -35 -22 -46 -45 -40 -118 -248 -103 -295 11 -32 -16 -31 -134 6
-136 42 -196 54 -189 35 2 -7 40 -23 84 -36 45 -12 114 -36 155 -53 113 -44
199 -71 231 -71 19 0 28 -5 28 -16 0 -20 84 -57 110 -49 11 4 20 2 20 -4 0
-13 147 -110 230 -151 l64 -32 22 25 c12 14 54 81 94 149 40 67 80 134 89 148
l16 25 -35 -25 -35 -25 22 35 c12 19 32 37 45 40 28 7 61 66 53 98 -3 14 -2
21 4 18 14 -9 63 56 195 257 102 156 136 198 136 169 0 -5 -40 -90 -90 -191
-49 -100 -90 -188 -90 -195 0 -7 -11 -27 -25 -46 -14 -19 -25 -47 -25 -62 0
-15 -4 -28 -10 -28 -23 0 -169 -313 -173 -372 -2 -22 -6 -27 -21 -22 -17 6
-18 2 -12 -29 5 -29 3 -35 -14 -40 -24 -6 -26 -29 -4 -62 20 -31 80 -69 98
-62 9 4 16 -3 20 -18 8 -31 163 -195 185 -195 19 0 48 -28 77 -75 16 -26 14
-25 -19 9 -51 54 -58 38 -12 -29 38 -55 67 -80 79 -68 3 3 6 -5 6 -18 0 -33
65 -168 85 -175 10 -4 13 -14 9 -31 -6 -22 -4 -24 13 -19 17 5 19 2 15 -23 -2
-16 7 -78 22 -138 14 -59 32 -155 41 -213 8 -57 20 -109 25 -114 12 -12 29 6
153 159 103 127 177 230 177 248 0 9 12 29 26 44 24 27 25 27 18 4 -9 -36 10
-18 55 47 47 70 91 156 91 178 0 9 11 25 25 36 33 26 65 89 65 129 0 24 3 30
16 25 12 -4 14 -1 9 14 -4 12 1 26 14 39 49 49 128 258 160 425 43 221 55 390
55 771 0 374 -12 569 -54 870 -32 232 -90 518 -108 533 -22 17 -74 14 -160 -8z"/>
<path d="M1076 2383 c-35 -114 -42 -554 -13 -775 27 -198 56 -308 94 -350 8
-10 19 -15 23 -13 4 3 11 -14 14 -38 9 -54 93 -223 123 -247 13 -10 23 -23 23
-29 0 -42 108 -171 143 -171 10 0 15 -5 11 -11 -10 -16 110 -128 146 -135 16
-4 30 -10 30 -15 0 -22 170 -113 264 -140 28 -8 28 -8 10 12 -18 20 -18 21 16
17 27 -2 36 -8 38 -26 2 -12 13 -27 25 -33 28 -16 116 -39 146 -39 l24 0 -24
26 c-15 17 -31 24 -46 21 -14 -3 -23 2 -26 13 -4 16 -248 189 -315 224 -17 9
-42 16 -56 16 -19 0 -23 4 -19 19 3 12 -13 38 -49 79 -29 34 -92 106 -140 161
-49 55 -97 102 -108 106 -12 4 -20 15 -20 28 0 12 -23 60 -50 107 -132 224
-185 444 -214 891 -16 241 -24 306 -37 314 -4 3 -10 -3 -13 -12z"/>
<path d="M1919 1995 c40 -78 191 -302 209 -310 13 -6 22 -19 22 -32 0 -39 41
-132 73 -167 21 -22 33 -46 34 -67 1 -33 34 -86 50 -82 6 1 10 -18 10 -41 0
-50 32 -112 55 -108 11 1 14 -4 11 -20 -2 -13 5 -57 16 -98 10 -41 37 -145 59
-230 22 -85 50 -218 63 -294 29 -177 28 -176 152 -176 128 0 137 4 137 51 0
99 -193 619 -230 619 -6 0 -10 11 -10 25 0 16 -6 25 -15 25 -11 0 -15 11 -15
36 0 31 -3 36 -20 31 -16 -4 -20 0 -20 19 0 34 -42 113 -79 148 -17 16 -28 33
-25 37 13 21 -50 101 -73 92 -11 -4 -13 0 -8 18 7 29 -29 89 -63 104 -12 5
-22 18 -22 28 0 47 -68 136 -120 155 -16 6 -26 18 -27 32 -1 12 -13 40 -27 61
-30 45 -152 173 -137 144z"/>
</g>
</svg>
